<mxfile host="" modified="2020-07-02T14:37:19.956Z" agent="5.0 (Windows NT 10.0; Win64; x64) AppleWebKit/537.36 (KHTML, like Gecko) Code/1.46.1 Chrome/78.0.3904.130 Electron/7.3.1 Safari/537.36" etag="hUfV9pZXV3R0-4pwlusO" version="13.1.3">
    <diagram id="6hGFLwfOUW9BJ-s0fimq" name="EN-DC">
        <mxGraphModel dx="992" dy="577" grid="1" gridSize="10" guides="1" tooltips="1" connect="1" arrows="1" fold="1" page="1" pageScale="1" pageWidth="827" pageHeight="1169" math="0" shadow="0">
            <root>
                <mxCell id="0"/>
                <mxCell id="1" parent="0"/>
                <mxCell id="37" style="edgeStyle=orthogonalEdgeStyle;rounded=0;orthogonalLoop=1;jettySize=auto;html=1;exitX=0.25;exitY=1;exitDx=0;exitDy=0;entryX=0.25;entryY=0;entryDx=0;entryDy=0;endArrow=none;endFill=0;startArrow=classic;startFill=1;" parent="1" source="2" target="5" edge="1">
                    <mxGeometry relative="1" as="geometry"/>
                </mxCell>
                <mxCell id="41" style="edgeStyle=orthogonalEdgeStyle;rounded=0;orthogonalLoop=1;jettySize=auto;html=1;exitX=0.75;exitY=1;exitDx=0;exitDy=0;entryX=0.75;entryY=0;entryDx=0;entryDy=0;startArrow=none;startFill=0;endArrow=classic;endFill=1;" parent="1" source="2" target="5" edge="1">
                    <mxGeometry relative="1" as="geometry"/>
                </mxCell>
                <mxCell id="2" value="MME" style="rounded=0;whiteSpace=wrap;html=1;verticalAlign=top;" parent="1" vertex="1">
                    <mxGeometry x="280" y="40" width="80" height="60" as="geometry"/>
                </mxCell>
                <mxCell id="31" value="" style="edgeStyle=orthogonalEdgeStyle;rounded=0;orthogonalLoop=1;jettySize=auto;html=1;endArrow=none;endFill=0;" parent="1" source="3" target="8" edge="1">
                    <mxGeometry relative="1" as="geometry"/>
                </mxCell>
                <mxCell id="3" value="S-GW" style="rounded=0;whiteSpace=wrap;html=1;verticalAlign=top;" parent="1" vertex="1">
                    <mxGeometry x="760" y="40" width="80" height="60" as="geometry"/>
                </mxCell>
                <mxCell id="53" style="edgeStyle=orthogonalEdgeStyle;rounded=0;orthogonalLoop=1;jettySize=auto;html=1;exitX=1;exitY=0.25;exitDx=0;exitDy=0;entryX=0;entryY=0.25;entryDx=0;entryDy=0;startArrow=none;startFill=0;endArrow=classic;endFill=1;" parent="1" source="5" target="6" edge="1">
                    <mxGeometry relative="1" as="geometry"/>
                </mxCell>
                <mxCell id="58" style="edgeStyle=orthogonalEdgeStyle;rounded=0;orthogonalLoop=1;jettySize=auto;html=1;exitX=0.75;exitY=1;exitDx=0;exitDy=0;entryX=0;entryY=0.25;entryDx=0;entryDy=0;startArrow=none;startFill=0;endArrow=classic;endFill=1;" parent="1" source="5" target="33" edge="1">
                    <mxGeometry relative="1" as="geometry"/>
                </mxCell>
                <mxCell id="5" value="MeNB" style="rounded=0;whiteSpace=wrap;html=1;verticalAlign=top;" parent="1" vertex="1">
                    <mxGeometry x="280" y="400" width="80" height="60" as="geometry"/>
                </mxCell>
                <mxCell id="30" value="" style="edgeStyle=orthogonalEdgeStyle;rounded=0;orthogonalLoop=1;jettySize=auto;html=1;endArrow=none;endFill=0;" parent="1" source="6" target="8" edge="1">
                    <mxGeometry relative="1" as="geometry"/>
                </mxCell>
                <mxCell id="32" value="" style="edgeStyle=orthogonalEdgeStyle;rounded=0;orthogonalLoop=1;jettySize=auto;html=1;endArrow=none;endFill=0;" parent="1" source="6" target="7" edge="1">
                    <mxGeometry relative="1" as="geometry"/>
                </mxCell>
                <mxCell id="54" style="edgeStyle=orthogonalEdgeStyle;rounded=0;orthogonalLoop=1;jettySize=auto;html=1;exitX=0;exitY=0.75;exitDx=0;exitDy=0;entryX=1;entryY=0.75;entryDx=0;entryDy=0;startArrow=none;startFill=0;endArrow=classic;endFill=1;" parent="1" source="6" target="5" edge="1">
                    <mxGeometry relative="1" as="geometry"/>
                </mxCell>
                <mxCell id="6" value="gNB-CU-CP" style="rounded=0;whiteSpace=wrap;html=1;verticalAlign=top;" parent="1" vertex="1">
                    <mxGeometry x="600" y="400" width="80" height="60" as="geometry"/>
                </mxCell>
                <mxCell id="60" style="edgeStyle=orthogonalEdgeStyle;rounded=0;orthogonalLoop=1;jettySize=auto;html=1;exitX=0.75;exitY=1;exitDx=0;exitDy=0;entryX=0.75;entryY=0;entryDx=0;entryDy=0;startArrow=none;startFill=0;endArrow=classic;endFill=1;" parent="1" source="7" target="33" edge="1">
                    <mxGeometry relative="1" as="geometry"/>
                </mxCell>
                <mxCell id="7" value="gNB-DU" style="rounded=0;whiteSpace=wrap;html=1;verticalAlign=top;" parent="1" vertex="1">
                    <mxGeometry x="600" y="540" width="80" height="60" as="geometry"/>
                </mxCell>
                <mxCell id="8" value="gNB-CU-UP" style="rounded=0;whiteSpace=wrap;html=1;verticalAlign=top;" parent="1" vertex="1">
                    <mxGeometry x="760" y="400" width="80" height="60" as="geometry"/>
                </mxCell>
                <mxCell id="57" style="edgeStyle=orthogonalEdgeStyle;rounded=0;orthogonalLoop=1;jettySize=auto;html=1;exitX=0;exitY=0.75;exitDx=0;exitDy=0;entryX=0.25;entryY=1;entryDx=0;entryDy=0;startArrow=none;startFill=0;endArrow=classic;endFill=1;" parent="1" source="33" target="5" edge="1">
                    <mxGeometry relative="1" as="geometry"/>
                </mxCell>
                <mxCell id="59" style="edgeStyle=orthogonalEdgeStyle;rounded=0;orthogonalLoop=1;jettySize=auto;html=1;exitX=0.25;exitY=0;exitDx=0;exitDy=0;entryX=0.25;entryY=1;entryDx=0;entryDy=0;startArrow=none;startFill=0;endArrow=classic;endFill=1;" parent="1" source="33" target="7" edge="1">
                    <mxGeometry relative="1" as="geometry"/>
                </mxCell>
                <mxCell id="33" value="IAB-MT" style="rounded=0;whiteSpace=wrap;html=1;verticalAlign=bottom;horizontal=0;" parent="1" vertex="1">
                    <mxGeometry x="600" y="740" width="80" height="60" as="geometry"/>
                </mxCell>
                <mxCell id="66" style="edgeStyle=orthogonalEdgeStyle;rounded=0;orthogonalLoop=1;jettySize=auto;html=1;exitX=0.75;exitY=1;exitDx=0;exitDy=0;entryX=0.75;entryY=0;entryDx=0;entryDy=0;" edge="1" parent="1" source="34" target="62">
                    <mxGeometry relative="1" as="geometry"/>
                </mxCell>
                <mxCell id="34" value="IAB-DU" style="rounded=0;whiteSpace=wrap;html=1;verticalAlign=bottom;horizontal=0;" parent="1" vertex="1">
                    <mxGeometry x="600" y="820" width="80" height="60" as="geometry"/>
                </mxCell>
                <mxCell id="35" value="BAP" style="rounded=0;whiteSpace=wrap;html=1;verticalAlign=middle;" parent="1" vertex="1">
                    <mxGeometry x="610" y="770" width="50" height="80" as="geometry"/>
                </mxCell>
                <mxCell id="48" style="edgeStyle=orthogonalEdgeStyle;rounded=0;orthogonalLoop=1;jettySize=auto;html=1;exitX=1;exitY=0.5;exitDx=0;exitDy=0;entryX=0;entryY=0.5;entryDx=0;entryDy=0;startArrow=none;startFill=0;endArrow=classic;endFill=1;" parent="1" source="36" target="5" edge="1">
                    <mxGeometry relative="1" as="geometry"/>
                </mxCell>
                <mxCell id="36" value="Source eNB" style="rounded=0;whiteSpace=wrap;html=1;verticalAlign=top;" parent="1" vertex="1">
                    <mxGeometry x="40" y="400" width="80" height="60" as="geometry"/>
                </mxCell>
                <mxCell id="42" value="&lt;b&gt;INITIAL UE MESSAGE&lt;/b&gt;&lt;br&gt;&lt;i&gt;- IAB Node Indication&lt;/i&gt;" style="text;html=1;align=left;verticalAlign=top;resizable=0;points=[];autosize=1;" parent="1" vertex="1">
                    <mxGeometry x="150" y="360" width="140" height="30" as="geometry"/>
                </mxCell>
                <mxCell id="43" value="&lt;b&gt;S1 SETUP RESPONSE&lt;/b&gt;&lt;br&gt;&lt;i&gt;- IAB Supported&lt;br&gt;&lt;br&gt;&lt;/i&gt;&lt;b&gt;INITIAL CONTEXT SETUP REQUEST&lt;/b&gt;&lt;br&gt;&lt;b&gt;UE CONTEXT MODIFICATION REQUEST&lt;br&gt;HANDOVER REQUEST&lt;/b&gt;&lt;br&gt;&lt;i&gt;- IAB Authorized&lt;/i&gt;&lt;i&gt;&lt;br&gt;&lt;/i&gt;" style="text;html=1;align=left;verticalAlign=top;resizable=0;points=[];autosize=1;" parent="1" vertex="1">
                    <mxGeometry x="350" y="110" width="240" height="100" as="geometry"/>
                </mxCell>
                <mxCell id="49" value="&lt;b&gt;HANDOVER REQUEST&lt;/b&gt;&lt;br&gt;&lt;i&gt;- IAB Node Indication&lt;/i&gt;" style="text;html=1;align=left;verticalAlign=top;resizable=0;points=[];autosize=1;" parent="1" vertex="1">
                    <mxGeometry x="130" y="440" width="150" height="30" as="geometry"/>
                </mxCell>
                <mxCell id="50" value="&lt;b&gt;SGNB ADDITION REQUEST&lt;br&gt;SGNB MODIFICATION REQUEST&lt;/b&gt;&lt;br&gt;&lt;i&gt;- IAB Node Indication&lt;br&gt;&lt;/i&gt;&lt;br&gt;&lt;b&gt;RRC Transfer&lt;/b&gt;&lt;br&gt;&lt;i&gt;- IAB Information&lt;br&gt;&lt;/i&gt;&amp;nbsp; - RRC Container&lt;br&gt;&lt;font color=&quot;#008000&quot;&gt;/* Used to IAB IP address&amp;nbsp; request or&lt;/font&gt;&lt;br&gt;&lt;font color=&quot;#008000&quot;&gt;&amp;nbsp;* IAB IP indication */&lt;/font&gt;&lt;br&gt;&lt;br&gt;&lt;b&gt;F1-C TRAFFIC TRANSFER&lt;/b&gt;" style="text;html=1;align=left;verticalAlign=top;resizable=0;points=[];autosize=1;" parent="1" vertex="1">
                    <mxGeometry x="370" y="240" width="210" height="160" as="geometry"/>
                </mxCell>
                <mxCell id="52" value="&lt;b&gt;ADDITION ACKNOWLEDGE&lt;br&gt;MODIFICATION ACKNOWLEDGE&lt;/b&gt;&lt;br&gt;&lt;i&gt;- GTP Tunnel Endpoint&lt;br&gt;&amp;nbsp; - QoS Mapping Information&lt;br&gt;&lt;/i&gt;&lt;br&gt;&lt;b&gt;F1-C TRAFFIC TRANSFER&lt;/b&gt;" style="text;html=1;align=left;verticalAlign=top;resizable=0;points=[];autosize=1;" parent="1" vertex="1">
                    <mxGeometry x="390" y="450" width="200" height="90" as="geometry"/>
                </mxCell>
                <mxCell id="55" value="&lt;b&gt;SIB1&lt;/b&gt;&lt;br&gt;&lt;i&gt;- plmn-IdentityList-v16&lt;br&gt;&amp;nbsp; - iab-Support&lt;/i&gt;&lt;br&gt;&lt;br&gt;&lt;b&gt;DLInformationTransfer&lt;/b&gt;&lt;br&gt;&lt;i&gt;- dedicatedInfoF1AP&lt;/i&gt;&lt;br&gt;&lt;br&gt;&lt;b&gt;ULInformationTransfer&lt;/b&gt;&lt;br&gt;&lt;i&gt;- dedicatedInfoF1AP&lt;/i&gt;&lt;br&gt;&lt;br&gt;&lt;b&gt;RRCConnectionReconfiguration&lt;/b&gt;&lt;br&gt;&lt;i&gt;- nr-SecondaryCellGroupConfig&lt;br&gt;&amp;nbsp; - iab-F1AP-TransferOverSRB-r16&lt;/i&gt;" style="text;html=1;align=left;verticalAlign=top;resizable=0;points=[];autosize=1;" parent="1" vertex="1">
                    <mxGeometry x="350" y="560" width="200" height="180" as="geometry"/>
                </mxCell>
                <mxCell id="61" value="&lt;b&gt;RRCConnectionSetupComplete&lt;/b&gt;&lt;br&gt;&lt;i&gt;- iab-NodeIndication&lt;/i&gt;" style="text;html=1;align=left;verticalAlign=top;resizable=0;points=[];autosize=1;" parent="1" vertex="1">
                    <mxGeometry x="390" y="795" width="200" height="30" as="geometry"/>
                </mxCell>
                <mxCell id="65" style="edgeStyle=orthogonalEdgeStyle;rounded=0;orthogonalLoop=1;jettySize=auto;html=1;exitX=0.25;exitY=0;exitDx=0;exitDy=0;entryX=0.25;entryY=1;entryDx=0;entryDy=0;" edge="1" parent="1" source="62" target="34">
                    <mxGeometry relative="1" as="geometry"/>
                </mxCell>
                <mxCell id="62" value="IAB-MT" style="rounded=0;whiteSpace=wrap;html=1;verticalAlign=bottom;horizontal=0;" vertex="1" parent="1">
                    <mxGeometry x="600" y="960" width="80" height="60" as="geometry"/>
                </mxCell>
                <mxCell id="63" value="IAB-DU" style="rounded=0;whiteSpace=wrap;html=1;verticalAlign=bottom;horizontal=0;" vertex="1" parent="1">
                    <mxGeometry x="600" y="1040" width="80" height="60" as="geometry"/>
                </mxCell>
                <mxCell id="64" value="BAP" style="rounded=0;whiteSpace=wrap;html=1;verticalAlign=middle;" vertex="1" parent="1">
                    <mxGeometry x="610" y="990" width="50" height="80" as="geometry"/>
                </mxCell>
            </root>
        </mxGraphModel>
    </diagram>
</mxfile>
